<?xml version="1.0" encoding="utf-8" standalone="no"?>
<!DOCTYPE svg PUBLIC "-//W3C//DTD SVG 1.1//EN"
  "http://www.w3.org/Graphics/SVG/1.1/DTD/svg11.dtd">
<svg height="720pt" version="1.1" viewBox="0 0 1152 720" width="1152pt" xmlns="http://www.w3.org/2000/svg" xmlns:xlink="http://www.w3.org/1999/xlink">
 <metadata>
  <rdf:RDF xmlns:cc="http://creativecommons.org/ns#" xmlns:dc="http://purl.org/dc/elements/1.1/" xmlns:rdf="http://www.w3.org/1999/02/22-rdf-syntax-ns#">
   <cc:Work>
    <dc:type rdf:resource="http://purl.org/dc/dcmitype/StillImage"/>
    <dc:date>2021-12-12T10:51:22.809743</dc:date>
    <dc:format>image/svg+xml</dc:format>
    <dc:creator>
     <cc:Agent>
      <dc:title>Matplotlib v3.4.3, https://matplotlib.org/</dc:title>
     </cc:Agent>
    </dc:creator>
   </cc:Work>
  </rdf:RDF>
 </metadata>
 <defs>
  <style type="text/css">*{stroke-linecap:butt;stroke-linejoin:round;}</style>
 </defs>
 <g id="figure_1">
  <g id="patch_1">
   <path d="M 0 720 
L 1152 720 
L 1152 0 
L 0 0 
z
" style="fill:#ffffff;"/>
  </g>
  <g id="axes_1">
   <g id="patch_2">
    <path d="M 64.795534 327.366078 
L 974.663 327.366078 
L 974.663 77.104 
L 64.795534 77.104 
z
" style="fill:#ffffff;"/>
   </g>
   <g id="matplotlib.axis_1">
    <g id="xtick_1"/>
    <g id="xtick_2"/>
    <g id="xtick_3"/>
    <g id="xtick_4"/>
    <g id="xtick_5"/>
    <g id="xtick_6"/>
    <g id="xtick_7"/>
    <g id="xtick_8"/>
    <g id="xtick_9"/>
    <g id="xtick_10"/>
   </g>
   <g id="matplotlib.axis_2">
    <g id="ytick_1">
     <g id="line2d_1">
      <path clip-path="url(#p70e6c5ac55)" d="M 64.795534 316.348361 
L 974.663 316.348361 
" style="fill:none;stroke:#cccccc;stroke-linecap:round;"/>
     </g>
     <g id="text_1">
      <!-- 0 -->
      <g style="fill:#262626;" transform="translate(46.897034 321.363329)scale(0.132 -0.132)">
       <defs>
        <path d="M 2034 4250 
Q 1547 4250 1301 3770 
Q 1056 3291 1056 2328 
Q 1056 1369 1301 889 
Q 1547 409 2034 409 
Q 2525 409 2770 889 
Q 3016 1369 3016 2328 
Q 3016 3291 2770 3770 
Q 2525 4250 2034 4250 
z
M 2034 4750 
Q 2819 4750 3233 4129 
Q 3647 3509 3647 2328 
Q 3647 1150 3233 529 
Q 2819 -91 2034 -91 
Q 1250 -91 836 529 
Q 422 1150 422 2328 
Q 422 3509 836 4129 
Q 1250 4750 2034 4750 
z
" id="DejaVuSans-30" transform="scale(0.015625)"/>
       </defs>
       <use xlink:href="#DejaVuSans-30"/>
      </g>
     </g>
    </g>
    <g id="ytick_2">
     <g id="line2d_2">
      <path clip-path="url(#p70e6c5ac55)" d="M 64.795534 264.334735 
L 974.663 264.334735 
" style="fill:none;stroke:#cccccc;stroke-linecap:round;"/>
     </g>
     <g id="text_2">
      <!-- 5 -->
      <g style="fill:#262626;" transform="translate(46.897034 269.349704)scale(0.132 -0.132)">
       <defs>
        <path d="M 691 4666 
L 3169 4666 
L 3169 4134 
L 1269 4134 
L 1269 2991 
Q 1406 3038 1543 3061 
Q 1681 3084 1819 3084 
Q 2600 3084 3056 2656 
Q 3513 2228 3513 1497 
Q 3513 744 3044 326 
Q 2575 -91 1722 -91 
Q 1428 -91 1123 -41 
Q 819 9 494 109 
L 494 744 
Q 775 591 1075 516 
Q 1375 441 1709 441 
Q 2250 441 2565 725 
Q 2881 1009 2881 1497 
Q 2881 1984 2565 2268 
Q 2250 2553 1709 2553 
Q 1456 2553 1204 2497 
Q 953 2441 691 2322 
L 691 4666 
z
" id="DejaVuSans-35" transform="scale(0.015625)"/>
       </defs>
       <use xlink:href="#DejaVuSans-35"/>
      </g>
     </g>
    </g>
    <g id="ytick_3">
     <g id="line2d_3">
      <path clip-path="url(#p70e6c5ac55)" d="M 64.795534 212.32111 
L 974.663 212.32111 
" style="fill:none;stroke:#cccccc;stroke-linecap:round;"/>
     </g>
     <g id="text_3">
      <!-- 10 -->
      <g style="fill:#262626;" transform="translate(38.498534 217.336079)scale(0.132 -0.132)">
       <defs>
        <path d="M 794 531 
L 1825 531 
L 1825 4091 
L 703 3866 
L 703 4441 
L 1819 4666 
L 2450 4666 
L 2450 531 
L 3481 531 
L 3481 0 
L 794 0 
L 794 531 
z
" id="DejaVuSans-31" transform="scale(0.015625)"/>
       </defs>
       <use xlink:href="#DejaVuSans-31"/>
       <use x="63.623047" xlink:href="#DejaVuSans-30"/>
      </g>
     </g>
    </g>
    <g id="ytick_4">
     <g id="line2d_4">
      <path clip-path="url(#p70e6c5ac55)" d="M 64.795534 160.307485 
L 974.663 160.307485 
" style="fill:none;stroke:#cccccc;stroke-linecap:round;"/>
     </g>
     <g id="text_4">
      <!-- 15 -->
      <g style="fill:#262626;" transform="translate(38.498534 165.322454)scale(0.132 -0.132)">
       <use xlink:href="#DejaVuSans-31"/>
       <use x="63.623047" xlink:href="#DejaVuSans-35"/>
      </g>
     </g>
    </g>
    <g id="ytick_5">
     <g id="line2d_5">
      <path clip-path="url(#p70e6c5ac55)" d="M 64.795534 108.29386 
L 974.663 108.29386 
" style="fill:none;stroke:#cccccc;stroke-linecap:round;"/>
     </g>
     <g id="text_5">
      <!-- 20 -->
      <g style="fill:#262626;" transform="translate(38.498534 113.308828)scale(0.132 -0.132)">
       <defs>
        <path d="M 1228 531 
L 3431 531 
L 3431 0 
L 469 0 
L 469 531 
Q 828 903 1448 1529 
Q 2069 2156 2228 2338 
Q 2531 2678 2651 2914 
Q 2772 3150 2772 3378 
Q 2772 3750 2511 3984 
Q 2250 4219 1831 4219 
Q 1534 4219 1204 4116 
Q 875 4013 500 3803 
L 500 4441 
Q 881 4594 1212 4672 
Q 1544 4750 1819 4750 
Q 2544 4750 2975 4387 
Q 3406 4025 3406 3419 
Q 3406 3131 3298 2873 
Q 3191 2616 2906 2266 
Q 2828 2175 2409 1742 
Q 1991 1309 1228 531 
z
" id="DejaVuSans-32" transform="scale(0.015625)"/>
       </defs>
       <use xlink:href="#DejaVuSans-32"/>
       <use x="63.623047" xlink:href="#DejaVuSans-30"/>
      </g>
     </g>
    </g>
    <g id="text_6">
     <!-- Percentage of female quotes -->
     <g style="fill:#262626;" transform="translate(31.503784 305.900414)rotate(-90)scale(0.144 -0.144)">
      <defs>
       <path d="M 1259 4147 
L 1259 2394 
L 2053 2394 
Q 2494 2394 2734 2622 
Q 2975 2850 2975 3272 
Q 2975 3691 2734 3919 
Q 2494 4147 2053 4147 
L 1259 4147 
z
M 628 4666 
L 2053 4666 
Q 2838 4666 3239 4311 
Q 3641 3956 3641 3272 
Q 3641 2581 3239 2228 
Q 2838 1875 2053 1875 
L 1259 1875 
L 1259 0 
L 628 0 
L 628 4666 
z
" id="DejaVuSans-50" transform="scale(0.015625)"/>
       <path d="M 3597 1894 
L 3597 1613 
L 953 1613 
Q 991 1019 1311 708 
Q 1631 397 2203 397 
Q 2534 397 2845 478 
Q 3156 559 3463 722 
L 3463 178 
Q 3153 47 2828 -22 
Q 2503 -91 2169 -91 
Q 1331 -91 842 396 
Q 353 884 353 1716 
Q 353 2575 817 3079 
Q 1281 3584 2069 3584 
Q 2775 3584 3186 3129 
Q 3597 2675 3597 1894 
z
M 3022 2063 
Q 3016 2534 2758 2815 
Q 2500 3097 2075 3097 
Q 1594 3097 1305 2825 
Q 1016 2553 972 2059 
L 3022 2063 
z
" id="DejaVuSans-65" transform="scale(0.015625)"/>
       <path d="M 2631 2963 
Q 2534 3019 2420 3045 
Q 2306 3072 2169 3072 
Q 1681 3072 1420 2755 
Q 1159 2438 1159 1844 
L 1159 0 
L 581 0 
L 581 3500 
L 1159 3500 
L 1159 2956 
Q 1341 3275 1631 3429 
Q 1922 3584 2338 3584 
Q 2397 3584 2469 3576 
Q 2541 3569 2628 3553 
L 2631 2963 
z
" id="DejaVuSans-72" transform="scale(0.015625)"/>
       <path d="M 3122 3366 
L 3122 2828 
Q 2878 2963 2633 3030 
Q 2388 3097 2138 3097 
Q 1578 3097 1268 2742 
Q 959 2388 959 1747 
Q 959 1106 1268 751 
Q 1578 397 2138 397 
Q 2388 397 2633 464 
Q 2878 531 3122 666 
L 3122 134 
Q 2881 22 2623 -34 
Q 2366 -91 2075 -91 
Q 1284 -91 818 406 
Q 353 903 353 1747 
Q 353 2603 823 3093 
Q 1294 3584 2113 3584 
Q 2378 3584 2631 3529 
Q 2884 3475 3122 3366 
z
" id="DejaVuSans-63" transform="scale(0.015625)"/>
       <path d="M 3513 2113 
L 3513 0 
L 2938 0 
L 2938 2094 
Q 2938 2591 2744 2837 
Q 2550 3084 2163 3084 
Q 1697 3084 1428 2787 
Q 1159 2491 1159 1978 
L 1159 0 
L 581 0 
L 581 3500 
L 1159 3500 
L 1159 2956 
Q 1366 3272 1645 3428 
Q 1925 3584 2291 3584 
Q 2894 3584 3203 3211 
Q 3513 2838 3513 2113 
z
" id="DejaVuSans-6e" transform="scale(0.015625)"/>
       <path d="M 1172 4494 
L 1172 3500 
L 2356 3500 
L 2356 3053 
L 1172 3053 
L 1172 1153 
Q 1172 725 1289 603 
Q 1406 481 1766 481 
L 2356 481 
L 2356 0 
L 1766 0 
Q 1100 0 847 248 
Q 594 497 594 1153 
L 594 3053 
L 172 3053 
L 172 3500 
L 594 3500 
L 594 4494 
L 1172 4494 
z
" id="DejaVuSans-74" transform="scale(0.015625)"/>
       <path d="M 2194 1759 
Q 1497 1759 1228 1600 
Q 959 1441 959 1056 
Q 959 750 1161 570 
Q 1363 391 1709 391 
Q 2188 391 2477 730 
Q 2766 1069 2766 1631 
L 2766 1759 
L 2194 1759 
z
M 3341 1997 
L 3341 0 
L 2766 0 
L 2766 531 
Q 2569 213 2275 61 
Q 1981 -91 1556 -91 
Q 1019 -91 701 211 
Q 384 513 384 1019 
Q 384 1609 779 1909 
Q 1175 2209 1959 2209 
L 2766 2209 
L 2766 2266 
Q 2766 2663 2505 2880 
Q 2244 3097 1772 3097 
Q 1472 3097 1187 3025 
Q 903 2953 641 2809 
L 641 3341 
Q 956 3463 1253 3523 
Q 1550 3584 1831 3584 
Q 2591 3584 2966 3190 
Q 3341 2797 3341 1997 
z
" id="DejaVuSans-61" transform="scale(0.015625)"/>
       <path d="M 2906 1791 
Q 2906 2416 2648 2759 
Q 2391 3103 1925 3103 
Q 1463 3103 1205 2759 
Q 947 2416 947 1791 
Q 947 1169 1205 825 
Q 1463 481 1925 481 
Q 2391 481 2648 825 
Q 2906 1169 2906 1791 
z
M 3481 434 
Q 3481 -459 3084 -895 
Q 2688 -1331 1869 -1331 
Q 1566 -1331 1297 -1286 
Q 1028 -1241 775 -1147 
L 775 -588 
Q 1028 -725 1275 -790 
Q 1522 -856 1778 -856 
Q 2344 -856 2625 -561 
Q 2906 -266 2906 331 
L 2906 616 
Q 2728 306 2450 153 
Q 2172 0 1784 0 
Q 1141 0 747 490 
Q 353 981 353 1791 
Q 353 2603 747 3093 
Q 1141 3584 1784 3584 
Q 2172 3584 2450 3431 
Q 2728 3278 2906 2969 
L 2906 3500 
L 3481 3500 
L 3481 434 
z
" id="DejaVuSans-67" transform="scale(0.015625)"/>
       <path id="DejaVuSans-20" transform="scale(0.015625)"/>
       <path d="M 1959 3097 
Q 1497 3097 1228 2736 
Q 959 2375 959 1747 
Q 959 1119 1226 758 
Q 1494 397 1959 397 
Q 2419 397 2687 759 
Q 2956 1122 2956 1747 
Q 2956 2369 2687 2733 
Q 2419 3097 1959 3097 
z
M 1959 3584 
Q 2709 3584 3137 3096 
Q 3566 2609 3566 1747 
Q 3566 888 3137 398 
Q 2709 -91 1959 -91 
Q 1206 -91 779 398 
Q 353 888 353 1747 
Q 353 2609 779 3096 
Q 1206 3584 1959 3584 
z
" id="DejaVuSans-6f" transform="scale(0.015625)"/>
       <path d="M 2375 4863 
L 2375 4384 
L 1825 4384 
Q 1516 4384 1395 4259 
Q 1275 4134 1275 3809 
L 1275 3500 
L 2222 3500 
L 2222 3053 
L 1275 3053 
L 1275 0 
L 697 0 
L 697 3053 
L 147 3053 
L 147 3500 
L 697 3500 
L 697 3744 
Q 697 4328 969 4595 
Q 1241 4863 1831 4863 
L 2375 4863 
z
" id="DejaVuSans-66" transform="scale(0.015625)"/>
       <path d="M 3328 2828 
Q 3544 3216 3844 3400 
Q 4144 3584 4550 3584 
Q 5097 3584 5394 3201 
Q 5691 2819 5691 2113 
L 5691 0 
L 5113 0 
L 5113 2094 
Q 5113 2597 4934 2840 
Q 4756 3084 4391 3084 
Q 3944 3084 3684 2787 
Q 3425 2491 3425 1978 
L 3425 0 
L 2847 0 
L 2847 2094 
Q 2847 2600 2669 2842 
Q 2491 3084 2119 3084 
Q 1678 3084 1418 2786 
Q 1159 2488 1159 1978 
L 1159 0 
L 581 0 
L 581 3500 
L 1159 3500 
L 1159 2956 
Q 1356 3278 1631 3431 
Q 1906 3584 2284 3584 
Q 2666 3584 2933 3390 
Q 3200 3197 3328 2828 
z
" id="DejaVuSans-6d" transform="scale(0.015625)"/>
       <path d="M 603 4863 
L 1178 4863 
L 1178 0 
L 603 0 
L 603 4863 
z
" id="DejaVuSans-6c" transform="scale(0.015625)"/>
       <path d="M 947 1747 
Q 947 1113 1208 752 
Q 1469 391 1925 391 
Q 2381 391 2643 752 
Q 2906 1113 2906 1747 
Q 2906 2381 2643 2742 
Q 2381 3103 1925 3103 
Q 1469 3103 1208 2742 
Q 947 2381 947 1747 
z
M 2906 525 
Q 2725 213 2448 61 
Q 2172 -91 1784 -91 
Q 1150 -91 751 415 
Q 353 922 353 1747 
Q 353 2572 751 3078 
Q 1150 3584 1784 3584 
Q 2172 3584 2448 3432 
Q 2725 3281 2906 2969 
L 2906 3500 
L 3481 3500 
L 3481 -1331 
L 2906 -1331 
L 2906 525 
z
" id="DejaVuSans-71" transform="scale(0.015625)"/>
       <path d="M 544 1381 
L 544 3500 
L 1119 3500 
L 1119 1403 
Q 1119 906 1312 657 
Q 1506 409 1894 409 
Q 2359 409 2629 706 
Q 2900 1003 2900 1516 
L 2900 3500 
L 3475 3500 
L 3475 0 
L 2900 0 
L 2900 538 
Q 2691 219 2414 64 
Q 2138 -91 1772 -91 
Q 1169 -91 856 284 
Q 544 659 544 1381 
z
M 1991 3584 
L 1991 3584 
z
" id="DejaVuSans-75" transform="scale(0.015625)"/>
       <path d="M 2834 3397 
L 2834 2853 
Q 2591 2978 2328 3040 
Q 2066 3103 1784 3103 
Q 1356 3103 1142 2972 
Q 928 2841 928 2578 
Q 928 2378 1081 2264 
Q 1234 2150 1697 2047 
L 1894 2003 
Q 2506 1872 2764 1633 
Q 3022 1394 3022 966 
Q 3022 478 2636 193 
Q 2250 -91 1575 -91 
Q 1294 -91 989 -36 
Q 684 19 347 128 
L 347 722 
Q 666 556 975 473 
Q 1284 391 1588 391 
Q 1994 391 2212 530 
Q 2431 669 2431 922 
Q 2431 1156 2273 1281 
Q 2116 1406 1581 1522 
L 1381 1569 
Q 847 1681 609 1914 
Q 372 2147 372 2553 
Q 372 3047 722 3315 
Q 1072 3584 1716 3584 
Q 2034 3584 2315 3537 
Q 2597 3491 2834 3397 
z
" id="DejaVuSans-73" transform="scale(0.015625)"/>
      </defs>
      <use xlink:href="#DejaVuSans-50"/>
      <use x="56.677734" xlink:href="#DejaVuSans-65"/>
      <use x="118.201172" xlink:href="#DejaVuSans-72"/>
      <use x="157.064453" xlink:href="#DejaVuSans-63"/>
      <use x="212.044922" xlink:href="#DejaVuSans-65"/>
      <use x="273.568359" xlink:href="#DejaVuSans-6e"/>
      <use x="336.947266" xlink:href="#DejaVuSans-74"/>
      <use x="376.15625" xlink:href="#DejaVuSans-61"/>
      <use x="437.435547" xlink:href="#DejaVuSans-67"/>
      <use x="500.912109" xlink:href="#DejaVuSans-65"/>
      <use x="562.435547" xlink:href="#DejaVuSans-20"/>
      <use x="594.222656" xlink:href="#DejaVuSans-6f"/>
      <use x="655.404297" xlink:href="#DejaVuSans-66"/>
      <use x="690.609375" xlink:href="#DejaVuSans-20"/>
      <use x="722.396484" xlink:href="#DejaVuSans-66"/>
      <use x="757.601562" xlink:href="#DejaVuSans-65"/>
      <use x="819.125" xlink:href="#DejaVuSans-6d"/>
      <use x="916.537109" xlink:href="#DejaVuSans-61"/>
      <use x="977.816406" xlink:href="#DejaVuSans-6c"/>
      <use x="1005.599609" xlink:href="#DejaVuSans-65"/>
      <use x="1067.123047" xlink:href="#DejaVuSans-20"/>
      <use x="1098.910156" xlink:href="#DejaVuSans-71"/>
      <use x="1162.386719" xlink:href="#DejaVuSans-75"/>
      <use x="1225.765625" xlink:href="#DejaVuSans-6f"/>
      <use x="1286.947266" xlink:href="#DejaVuSans-74"/>
      <use x="1326.15625" xlink:href="#DejaVuSans-65"/>
      <use x="1387.679688" xlink:href="#DejaVuSans-73"/>
     </g>
    </g>
   </g>
   <g id="PathCollection_1">
    <defs>
     <path d="M 0 3.383948 
C 0.897434 3.383948 1.758231 3.027394 2.392813 2.392813 
C 3.027394 1.758231 3.383948 0.897434 3.383948 0 
C 3.383948 -0.897434 3.027394 -1.758231 2.392813 -2.392813 
C 1.758231 -3.027394 0.897434 -3.383948 0 -3.383948 
C -0.897434 -3.383948 -1.758231 -3.027394 -2.392813 -2.392813 
C -3.027394 -1.758231 -3.383948 -0.897434 -3.383948 0 
C -3.383948 0.897434 -3.027394 1.758231 -2.392813 2.392813 
C -1.758231 3.027394 -0.897434 3.383948 0 3.383948 
z
" id="m4608e35cf8" style="stroke:#7d858d;stroke-width:2.025;"/>
    </defs>
    <g clip-path="url(#p70e6c5ac55)">
     <use style="fill:#7d858d;stroke:#7d858d;stroke-width:2.025;" x="110.288907" xlink:href="#m4608e35cf8" y="315.990529"/>
     <use style="fill:#7d858d;stroke:#7d858d;stroke-width:2.025;" x="201.275653" xlink:href="#m4608e35cf8" y="291.77099"/>
     <use style="fill:#7d858d;stroke:#7d858d;stroke-width:2.025;" x="292.2624" xlink:href="#m4608e35cf8" y="208.876512"/>
     <use style="fill:#7d858d;stroke:#7d858d;stroke-width:2.025;" x="383.249147" xlink:href="#m4608e35cf8" y="162.720964"/>
     <use style="fill:#7d858d;stroke:#7d858d;stroke-width:2.025;" x="474.235893" xlink:href="#m4608e35cf8" y="100.058086"/>
     <use style="fill:#7d858d;stroke:#7d858d;stroke-width:2.025;" x="565.22264" xlink:href="#m4608e35cf8" y="106.816863"/>
     <use style="fill:#7d858d;stroke:#7d858d;stroke-width:2.025;" x="656.209387" xlink:href="#m4608e35cf8" y="91.929192"/>
     <use style="fill:#7d858d;stroke:#7d858d;stroke-width:2.025;" x="747.196133" xlink:href="#m4608e35cf8" y="247.253934"/>
     <use style="fill:#7d858d;stroke:#7d858d;stroke-width:2.025;" x="838.18288" xlink:href="#m4608e35cf8" y="290.356144"/>
     <use style="fill:#7d858d;stroke:#7d858d;stroke-width:2.025;" x="929.169627" xlink:href="#m4608e35cf8" y="307.437887"/>
    </g>
   </g>
   <g id="line2d_6">
    <path clip-path="url(#p70e6c5ac55)" d="M 110.288907 315.990529 
L 201.275653 291.77099 
L 292.2624 208.876512 
L 383.249147 162.720964 
L 474.235893 100.058086 
L 565.22264 106.816863 
L 656.209387 91.929192 
L 747.196133 247.253934 
L 838.18288 290.356144 
L 929.169627 307.437887 
" style="fill:none;stroke:#7d858d;stroke-linecap:round;stroke-width:2.7;"/>
   </g>
   <g id="line2d_7">
    <path clip-path="url(#p70e6c5ac55)" style="fill:none;stroke:#7d858d;stroke-linecap:round;stroke-width:2.7;"/>
   </g>
   <g id="line2d_8">
    <path clip-path="url(#p70e6c5ac55)" style="fill:none;stroke:#7d858d;stroke-linecap:round;stroke-width:2.7;"/>
   </g>
   <g id="line2d_9">
    <path clip-path="url(#p70e6c5ac55)" style="fill:none;stroke:#7d858d;stroke-linecap:round;stroke-width:2.7;"/>
   </g>
   <g id="line2d_10">
    <path clip-path="url(#p70e6c5ac55)" style="fill:none;stroke:#7d858d;stroke-linecap:round;stroke-width:2.7;"/>
   </g>
   <g id="line2d_11">
    <path clip-path="url(#p70e6c5ac55)" style="fill:none;stroke:#7d858d;stroke-linecap:round;stroke-width:2.7;"/>
   </g>
   <g id="line2d_12">
    <path clip-path="url(#p70e6c5ac55)" style="fill:none;stroke:#7d858d;stroke-linecap:round;stroke-width:2.7;"/>
   </g>
   <g id="line2d_13">
    <path clip-path="url(#p70e6c5ac55)" style="fill:none;stroke:#7d858d;stroke-linecap:round;stroke-width:2.7;"/>
   </g>
   <g id="line2d_14">
    <path clip-path="url(#p70e6c5ac55)" style="fill:none;stroke:#7d858d;stroke-linecap:round;stroke-width:2.7;"/>
   </g>
   <g id="line2d_15">
    <path clip-path="url(#p70e6c5ac55)" style="fill:none;stroke:#7d858d;stroke-linecap:round;stroke-width:2.7;"/>
   </g>
   <g id="line2d_16">
    <path clip-path="url(#p70e6c5ac55)" style="fill:none;stroke:#7d858d;stroke-linecap:round;stroke-width:2.7;"/>
   </g>
   <g id="PathCollection_2">
    <defs>
     <path d="M 0 3.383948 
C 0.897434 3.383948 1.758231 3.027394 2.392813 2.392813 
C 3.027394 1.758231 3.383948 0.897434 3.383948 0 
C 3.383948 -0.897434 3.027394 -1.758231 2.392813 -2.392813 
C 1.758231 -3.027394 0.897434 -3.383948 0 -3.383948 
C -0.897434 -3.383948 -1.758231 -3.027394 -2.392813 -2.392813 
C -3.027394 -1.758231 -3.383948 -0.897434 -3.383948 0 
C -3.383948 0.897434 -3.027394 1.758231 -2.392813 2.392813 
C -1.758231 3.027394 -0.897434 3.383948 0 3.383948 
z
" id="m2273a9b651" style="stroke:#dc6e57;stroke-width:2.025;"/>
    </defs>
    <g clip-path="url(#p70e6c5ac55)">
     <use style="fill:#dc6e57;stroke:#dc6e57;stroke-width:2.025;" x="110.288907" xlink:href="#m2273a9b651" y="314.83224"/>
     <use style="fill:#dc6e57;stroke:#dc6e57;stroke-width:2.025;" x="201.275653" xlink:href="#m2273a9b651" y="285.956064"/>
     <use style="fill:#dc6e57;stroke:#dc6e57;stroke-width:2.025;" x="292.2624" xlink:href="#m2273a9b651" y="162.179827"/>
     <use style="fill:#dc6e57;stroke:#dc6e57;stroke-width:2.025;" x="383.249147" xlink:href="#m2273a9b651" y="88.479549"/>
     <use style="fill:#dc6e57;stroke:#dc6e57;stroke-width:2.025;" x="474.235893" xlink:href="#m2273a9b651" y="97.412964"/>
     <use style="fill:#dc6e57;stroke:#dc6e57;stroke-width:2.025;" x="565.22264" xlink:href="#m2273a9b651" y="146.31277"/>
     <use style="fill:#dc6e57;stroke:#dc6e57;stroke-width:2.025;" x="656.209387" xlink:href="#m2273a9b651" y="157.132896"/>
     <use style="fill:#dc6e57;stroke:#dc6e57;stroke-width:2.025;" x="747.196133" xlink:href="#m2273a9b651" y="263.614676"/>
     <use style="fill:#dc6e57;stroke:#dc6e57;stroke-width:2.025;" x="838.18288" xlink:href="#m2273a9b651" y="298.854477"/>
     <use style="fill:#dc6e57;stroke:#dc6e57;stroke-width:2.025;" x="929.169627" xlink:href="#m2273a9b651" y="308.435638"/>
    </g>
   </g>
   <g id="line2d_17">
    <path clip-path="url(#p70e6c5ac55)" d="M 110.288907 314.83224 
L 201.275653 285.956064 
L 292.2624 162.179827 
L 383.249147 88.479549 
L 474.235893 97.412964 
L 565.22264 146.31277 
L 656.209387 157.132896 
L 747.196133 263.614676 
L 838.18288 298.854477 
L 929.169627 308.435638 
" style="fill:none;stroke:#dc6e57;stroke-linecap:round;stroke-width:2.7;"/>
   </g>
   <g id="line2d_18">
    <path clip-path="url(#p70e6c5ac55)" style="fill:none;stroke:#dc6e57;stroke-linecap:round;stroke-width:2.7;"/>
   </g>
   <g id="line2d_19">
    <path clip-path="url(#p70e6c5ac55)" style="fill:none;stroke:#dc6e57;stroke-linecap:round;stroke-width:2.7;"/>
   </g>
   <g id="line2d_20">
    <path clip-path="url(#p70e6c5ac55)" style="fill:none;stroke:#dc6e57;stroke-linecap:round;stroke-width:2.7;"/>
   </g>
   <g id="line2d_21">
    <path clip-path="url(#p70e6c5ac55)" style="fill:none;stroke:#dc6e57;stroke-linecap:round;stroke-width:2.7;"/>
   </g>
   <g id="line2d_22">
    <path clip-path="url(#p70e6c5ac55)" style="fill:none;stroke:#dc6e57;stroke-linecap:round;stroke-width:2.7;"/>
   </g>
   <g id="line2d_23">
    <path clip-path="url(#p70e6c5ac55)" style="fill:none;stroke:#dc6e57;stroke-linecap:round;stroke-width:2.7;"/>
   </g>
   <g id="line2d_24">
    <path clip-path="url(#p70e6c5ac55)" style="fill:none;stroke:#dc6e57;stroke-linecap:round;stroke-width:2.7;"/>
   </g>
   <g id="line2d_25">
    <path clip-path="url(#p70e6c5ac55)" style="fill:none;stroke:#dc6e57;stroke-linecap:round;stroke-width:2.7;"/>
   </g>
   <g id="line2d_26">
    <path clip-path="url(#p70e6c5ac55)" style="fill:none;stroke:#dc6e57;stroke-linecap:round;stroke-width:2.7;"/>
   </g>
   <g id="line2d_27">
    <path clip-path="url(#p70e6c5ac55)" style="fill:none;stroke:#dc6e57;stroke-linecap:round;stroke-width:2.7;"/>
   </g>
   <g id="patch_3">
    <path d="M 64.795534 327.366078 
L 64.795534 77.104 
" style="fill:none;stroke:#cccccc;stroke-linecap:square;stroke-linejoin:miter;stroke-width:1.25;"/>
   </g>
   <g id="patch_4">
    <path d="M 974.663 327.366078 
L 974.663 77.104 
" style="fill:none;stroke:#cccccc;stroke-linecap:square;stroke-linejoin:miter;stroke-width:1.25;"/>
   </g>
   <g id="patch_5">
    <path d="M 64.795534 327.366078 
L 974.663 327.366078 
" style="fill:none;stroke:#cccccc;stroke-linecap:square;stroke-linejoin:miter;stroke-width:1.25;"/>
   </g>
   <g id="patch_6">
    <path d="M 64.795534 77.104 
L 974.663 77.104 
" style="fill:none;stroke:#cccccc;stroke-linecap:square;stroke-linejoin:miter;stroke-width:1.25;"/>
   </g>
   <g id="text_7">
    <!-- Females -->
    <g style="fill:#262626;" transform="translate(489.947142 57.104)scale(0.144 -0.144)">
     <defs>
      <path d="M 628 4666 
L 3309 4666 
L 3309 4134 
L 1259 4134 
L 1259 2759 
L 3109 2759 
L 3109 2228 
L 1259 2228 
L 1259 0 
L 628 0 
L 628 4666 
z
" id="DejaVuSans-46" transform="scale(0.015625)"/>
     </defs>
     <use xlink:href="#DejaVuSans-46"/>
     <use x="52.019531" xlink:href="#DejaVuSans-65"/>
     <use x="113.542969" xlink:href="#DejaVuSans-6d"/>
     <use x="210.955078" xlink:href="#DejaVuSans-61"/>
     <use x="272.234375" xlink:href="#DejaVuSans-6c"/>
     <use x="300.017578" xlink:href="#DejaVuSans-65"/>
     <use x="361.541016" xlink:href="#DejaVuSans-73"/>
    </g>
   </g>
  </g>
  <g id="axes_2">
   <g id="patch_7">
    <path d="M 64.795534 624.180156 
L 974.663 624.180156 
L 974.663 373.918078 
L 64.795534 373.918078 
z
" style="fill:#ffffff;"/>
   </g>
   <g id="matplotlib.axis_3">
    <g id="xtick_11">
     <g id="text_8">
      <!-- (0, 10] -->
      <g style="fill:#262626;" transform="translate(97.348455 671.804393)rotate(-45)scale(0.132 -0.132)">
       <defs>
        <path d="M 1984 4856 
Q 1566 4138 1362 3434 
Q 1159 2731 1159 2009 
Q 1159 1288 1364 580 
Q 1569 -128 1984 -844 
L 1484 -844 
Q 1016 -109 783 600 
Q 550 1309 550 2009 
Q 550 2706 781 3412 
Q 1013 4119 1484 4856 
L 1984 4856 
z
" id="DejaVuSans-28" transform="scale(0.015625)"/>
        <path d="M 750 794 
L 1409 794 
L 1409 256 
L 897 -744 
L 494 -744 
L 750 256 
L 750 794 
z
" id="DejaVuSans-2c" transform="scale(0.015625)"/>
        <path d="M 1947 4863 
L 1947 -844 
L 622 -844 
L 622 -397 
L 1369 -397 
L 1369 4416 
L 622 4416 
L 622 4863 
L 1947 4863 
z
" id="DejaVuSans-5d" transform="scale(0.015625)"/>
       </defs>
       <use xlink:href="#DejaVuSans-28"/>
       <use x="39.013672" xlink:href="#DejaVuSans-30"/>
       <use x="102.636719" xlink:href="#DejaVuSans-2c"/>
       <use x="134.423828" xlink:href="#DejaVuSans-20"/>
       <use x="166.210938" xlink:href="#DejaVuSans-31"/>
       <use x="229.833984" xlink:href="#DejaVuSans-30"/>
       <use x="293.457031" xlink:href="#DejaVuSans-5d"/>
      </g>
     </g>
    </g>
    <g id="xtick_12">
     <g id="text_9">
      <!-- (10, 20] -->
      <g style="fill:#262626;" transform="translate(185.365883 677.743029)rotate(-45)scale(0.132 -0.132)">
       <use xlink:href="#DejaVuSans-28"/>
       <use x="39.013672" xlink:href="#DejaVuSans-31"/>
       <use x="102.636719" xlink:href="#DejaVuSans-30"/>
       <use x="166.259766" xlink:href="#DejaVuSans-2c"/>
       <use x="198.046875" xlink:href="#DejaVuSans-20"/>
       <use x="229.833984" xlink:href="#DejaVuSans-32"/>
       <use x="293.457031" xlink:href="#DejaVuSans-30"/>
       <use x="357.080078" xlink:href="#DejaVuSans-5d"/>
      </g>
     </g>
    </g>
    <g id="xtick_13">
     <g id="text_10">
      <!-- (20, 30] -->
      <g style="fill:#262626;" transform="translate(276.35263 677.743029)rotate(-45)scale(0.132 -0.132)">
       <defs>
        <path d="M 2597 2516 
Q 3050 2419 3304 2112 
Q 3559 1806 3559 1356 
Q 3559 666 3084 287 
Q 2609 -91 1734 -91 
Q 1441 -91 1130 -33 
Q 819 25 488 141 
L 488 750 
Q 750 597 1062 519 
Q 1375 441 1716 441 
Q 2309 441 2620 675 
Q 2931 909 2931 1356 
Q 2931 1769 2642 2001 
Q 2353 2234 1838 2234 
L 1294 2234 
L 1294 2753 
L 1863 2753 
Q 2328 2753 2575 2939 
Q 2822 3125 2822 3475 
Q 2822 3834 2567 4026 
Q 2313 4219 1838 4219 
Q 1578 4219 1281 4162 
Q 984 4106 628 3988 
L 628 4550 
Q 988 4650 1302 4700 
Q 1616 4750 1894 4750 
Q 2613 4750 3031 4423 
Q 3450 4097 3450 3541 
Q 3450 3153 3228 2886 
Q 3006 2619 2597 2516 
z
" id="DejaVuSans-33" transform="scale(0.015625)"/>
       </defs>
       <use xlink:href="#DejaVuSans-28"/>
       <use x="39.013672" xlink:href="#DejaVuSans-32"/>
       <use x="102.636719" xlink:href="#DejaVuSans-30"/>
       <use x="166.259766" xlink:href="#DejaVuSans-2c"/>
       <use x="198.046875" xlink:href="#DejaVuSans-20"/>
       <use x="229.833984" xlink:href="#DejaVuSans-33"/>
       <use x="293.457031" xlink:href="#DejaVuSans-30"/>
       <use x="357.080078" xlink:href="#DejaVuSans-5d"/>
      </g>
     </g>
    </g>
    <g id="xtick_14">
     <g id="text_11">
      <!-- (30, 40] -->
      <g style="fill:#262626;" transform="translate(367.339377 677.743029)rotate(-45)scale(0.132 -0.132)">
       <defs>
        <path d="M 2419 4116 
L 825 1625 
L 2419 1625 
L 2419 4116 
z
M 2253 4666 
L 3047 4666 
L 3047 1625 
L 3713 1625 
L 3713 1100 
L 3047 1100 
L 3047 0 
L 2419 0 
L 2419 1100 
L 313 1100 
L 313 1709 
L 2253 4666 
z
" id="DejaVuSans-34" transform="scale(0.015625)"/>
       </defs>
       <use xlink:href="#DejaVuSans-28"/>
       <use x="39.013672" xlink:href="#DejaVuSans-33"/>
       <use x="102.636719" xlink:href="#DejaVuSans-30"/>
       <use x="166.259766" xlink:href="#DejaVuSans-2c"/>
       <use x="198.046875" xlink:href="#DejaVuSans-20"/>
       <use x="229.833984" xlink:href="#DejaVuSans-34"/>
       <use x="293.457031" xlink:href="#DejaVuSans-30"/>
       <use x="357.080078" xlink:href="#DejaVuSans-5d"/>
      </g>
     </g>
    </g>
    <g id="xtick_15">
     <g id="text_12">
      <!-- (40, 50] -->
      <g style="fill:#262626;" transform="translate(458.326123 677.743029)rotate(-45)scale(0.132 -0.132)">
       <use xlink:href="#DejaVuSans-28"/>
       <use x="39.013672" xlink:href="#DejaVuSans-34"/>
       <use x="102.636719" xlink:href="#DejaVuSans-30"/>
       <use x="166.259766" xlink:href="#DejaVuSans-2c"/>
       <use x="198.046875" xlink:href="#DejaVuSans-20"/>
       <use x="229.833984" xlink:href="#DejaVuSans-35"/>
       <use x="293.457031" xlink:href="#DejaVuSans-30"/>
       <use x="357.080078" xlink:href="#DejaVuSans-5d"/>
      </g>
     </g>
    </g>
    <g id="xtick_16">
     <g id="text_13">
      <!-- (50, 60] -->
      <g style="fill:#262626;" transform="translate(549.31287 677.743029)rotate(-45)scale(0.132 -0.132)">
       <defs>
        <path d="M 2113 2584 
Q 1688 2584 1439 2293 
Q 1191 2003 1191 1497 
Q 1191 994 1439 701 
Q 1688 409 2113 409 
Q 2538 409 2786 701 
Q 3034 994 3034 1497 
Q 3034 2003 2786 2293 
Q 2538 2584 2113 2584 
z
M 3366 4563 
L 3366 3988 
Q 3128 4100 2886 4159 
Q 2644 4219 2406 4219 
Q 1781 4219 1451 3797 
Q 1122 3375 1075 2522 
Q 1259 2794 1537 2939 
Q 1816 3084 2150 3084 
Q 2853 3084 3261 2657 
Q 3669 2231 3669 1497 
Q 3669 778 3244 343 
Q 2819 -91 2113 -91 
Q 1303 -91 875 529 
Q 447 1150 447 2328 
Q 447 3434 972 4092 
Q 1497 4750 2381 4750 
Q 2619 4750 2861 4703 
Q 3103 4656 3366 4563 
z
" id="DejaVuSans-36" transform="scale(0.015625)"/>
       </defs>
       <use xlink:href="#DejaVuSans-28"/>
       <use x="39.013672" xlink:href="#DejaVuSans-35"/>
       <use x="102.636719" xlink:href="#DejaVuSans-30"/>
       <use x="166.259766" xlink:href="#DejaVuSans-2c"/>
       <use x="198.046875" xlink:href="#DejaVuSans-20"/>
       <use x="229.833984" xlink:href="#DejaVuSans-36"/>
       <use x="293.457031" xlink:href="#DejaVuSans-30"/>
       <use x="357.080078" xlink:href="#DejaVuSans-5d"/>
      </g>
     </g>
    </g>
    <g id="xtick_17">
     <g id="text_14">
      <!-- (60, 70] -->
      <g style="fill:#262626;" transform="translate(640.299617 677.743029)rotate(-45)scale(0.132 -0.132)">
       <defs>
        <path d="M 525 4666 
L 3525 4666 
L 3525 4397 
L 1831 0 
L 1172 0 
L 2766 4134 
L 525 4134 
L 525 4666 
z
" id="DejaVuSans-37" transform="scale(0.015625)"/>
       </defs>
       <use xlink:href="#DejaVuSans-28"/>
       <use x="39.013672" xlink:href="#DejaVuSans-36"/>
       <use x="102.636719" xlink:href="#DejaVuSans-30"/>
       <use x="166.259766" xlink:href="#DejaVuSans-2c"/>
       <use x="198.046875" xlink:href="#DejaVuSans-20"/>
       <use x="229.833984" xlink:href="#DejaVuSans-37"/>
       <use x="293.457031" xlink:href="#DejaVuSans-30"/>
       <use x="357.080078" xlink:href="#DejaVuSans-5d"/>
      </g>
     </g>
    </g>
    <g id="xtick_18">
     <g id="text_15">
      <!-- (70, 80] -->
      <g style="fill:#262626;" transform="translate(731.286363 677.743029)rotate(-45)scale(0.132 -0.132)">
       <defs>
        <path d="M 2034 2216 
Q 1584 2216 1326 1975 
Q 1069 1734 1069 1313 
Q 1069 891 1326 650 
Q 1584 409 2034 409 
Q 2484 409 2743 651 
Q 3003 894 3003 1313 
Q 3003 1734 2745 1975 
Q 2488 2216 2034 2216 
z
M 1403 2484 
Q 997 2584 770 2862 
Q 544 3141 544 3541 
Q 544 4100 942 4425 
Q 1341 4750 2034 4750 
Q 2731 4750 3128 4425 
Q 3525 4100 3525 3541 
Q 3525 3141 3298 2862 
Q 3072 2584 2669 2484 
Q 3125 2378 3379 2068 
Q 3634 1759 3634 1313 
Q 3634 634 3220 271 
Q 2806 -91 2034 -91 
Q 1263 -91 848 271 
Q 434 634 434 1313 
Q 434 1759 690 2068 
Q 947 2378 1403 2484 
z
M 1172 3481 
Q 1172 3119 1398 2916 
Q 1625 2713 2034 2713 
Q 2441 2713 2670 2916 
Q 2900 3119 2900 3481 
Q 2900 3844 2670 4047 
Q 2441 4250 2034 4250 
Q 1625 4250 1398 4047 
Q 1172 3844 1172 3481 
z
" id="DejaVuSans-38" transform="scale(0.015625)"/>
       </defs>
       <use xlink:href="#DejaVuSans-28"/>
       <use x="39.013672" xlink:href="#DejaVuSans-37"/>
       <use x="102.636719" xlink:href="#DejaVuSans-30"/>
       <use x="166.259766" xlink:href="#DejaVuSans-2c"/>
       <use x="198.046875" xlink:href="#DejaVuSans-20"/>
       <use x="229.833984" xlink:href="#DejaVuSans-38"/>
       <use x="293.457031" xlink:href="#DejaVuSans-30"/>
       <use x="357.080078" xlink:href="#DejaVuSans-5d"/>
      </g>
     </g>
    </g>
    <g id="xtick_19">
     <g id="text_16">
      <!-- (80, 90] -->
      <g style="fill:#262626;" transform="translate(822.27311 677.743029)rotate(-45)scale(0.132 -0.132)">
       <defs>
        <path d="M 703 97 
L 703 672 
Q 941 559 1184 500 
Q 1428 441 1663 441 
Q 2288 441 2617 861 
Q 2947 1281 2994 2138 
Q 2813 1869 2534 1725 
Q 2256 1581 1919 1581 
Q 1219 1581 811 2004 
Q 403 2428 403 3163 
Q 403 3881 828 4315 
Q 1253 4750 1959 4750 
Q 2769 4750 3195 4129 
Q 3622 3509 3622 2328 
Q 3622 1225 3098 567 
Q 2575 -91 1691 -91 
Q 1453 -91 1209 -44 
Q 966 3 703 97 
z
M 1959 2075 
Q 2384 2075 2632 2365 
Q 2881 2656 2881 3163 
Q 2881 3666 2632 3958 
Q 2384 4250 1959 4250 
Q 1534 4250 1286 3958 
Q 1038 3666 1038 3163 
Q 1038 2656 1286 2365 
Q 1534 2075 1959 2075 
z
" id="DejaVuSans-39" transform="scale(0.015625)"/>
       </defs>
       <use xlink:href="#DejaVuSans-28"/>
       <use x="39.013672" xlink:href="#DejaVuSans-38"/>
       <use x="102.636719" xlink:href="#DejaVuSans-30"/>
       <use x="166.259766" xlink:href="#DejaVuSans-2c"/>
       <use x="198.046875" xlink:href="#DejaVuSans-20"/>
       <use x="229.833984" xlink:href="#DejaVuSans-39"/>
       <use x="293.457031" xlink:href="#DejaVuSans-30"/>
       <use x="357.080078" xlink:href="#DejaVuSans-5d"/>
      </g>
     </g>
    </g>
    <g id="xtick_20">
     <g id="text_17">
      <!-- (90, 100] -->
      <g style="fill:#262626;" transform="translate(910.290539 683.681666)rotate(-45)scale(0.132 -0.132)">
       <use xlink:href="#DejaVuSans-28"/>
       <use x="39.013672" xlink:href="#DejaVuSans-39"/>
       <use x="102.636719" xlink:href="#DejaVuSans-30"/>
       <use x="166.259766" xlink:href="#DejaVuSans-2c"/>
       <use x="198.046875" xlink:href="#DejaVuSans-20"/>
       <use x="229.833984" xlink:href="#DejaVuSans-31"/>
       <use x="293.457031" xlink:href="#DejaVuSans-30"/>
       <use x="357.080078" xlink:href="#DejaVuSans-30"/>
       <use x="420.703125" xlink:href="#DejaVuSans-5d"/>
      </g>
     </g>
    </g>
    <g id="text_18">
     <!-- Age range -->
     <g style="fill:#262626;" transform="translate(482.578392 700.564556)scale(0.144 -0.144)">
      <defs>
       <path d="M 2188 4044 
L 1331 1722 
L 3047 1722 
L 2188 4044 
z
M 1831 4666 
L 2547 4666 
L 4325 0 
L 3669 0 
L 3244 1197 
L 1141 1197 
L 716 0 
L 50 0 
L 1831 4666 
z
" id="DejaVuSans-41" transform="scale(0.015625)"/>
      </defs>
      <use xlink:href="#DejaVuSans-41"/>
      <use x="68.408203" xlink:href="#DejaVuSans-67"/>
      <use x="131.884766" xlink:href="#DejaVuSans-65"/>
      <use x="193.408203" xlink:href="#DejaVuSans-20"/>
      <use x="225.195312" xlink:href="#DejaVuSans-72"/>
      <use x="266.308594" xlink:href="#DejaVuSans-61"/>
      <use x="327.587891" xlink:href="#DejaVuSans-6e"/>
      <use x="390.966797" xlink:href="#DejaVuSans-67"/>
      <use x="454.443359" xlink:href="#DejaVuSans-65"/>
     </g>
    </g>
   </g>
   <g id="matplotlib.axis_4">
    <g id="ytick_6">
     <g id="line2d_28">
      <path clip-path="url(#pf59854e209)" d="M 64.795534 612.864626 
L 974.663 612.864626 
" style="fill:none;stroke:#cccccc;stroke-linecap:round;"/>
     </g>
     <g id="text_19">
      <!-- 0 -->
      <g style="fill:#262626;" transform="translate(47.415757 620.880531)rotate(-45)scale(0.132 -0.132)">
       <use xlink:href="#DejaVuSans-30"/>
      </g>
     </g>
    </g>
    <g id="ytick_7">
     <g id="line2d_29">
      <path clip-path="url(#pf59854e209)" d="M 64.795534 562.944338 
L 974.663 562.944338 
" style="fill:none;stroke:#cccccc;stroke-linecap:round;"/>
     </g>
     <g id="text_20">
      <!-- 5 -->
      <g style="fill:#262626;" transform="translate(47.415757 570.960242)rotate(-45)scale(0.132 -0.132)">
       <use xlink:href="#DejaVuSans-35"/>
      </g>
     </g>
    </g>
    <g id="ytick_8">
     <g id="line2d_30">
      <path clip-path="url(#pf59854e209)" d="M 64.795534 513.02405 
L 974.663 513.02405 
" style="fill:none;stroke:#cccccc;stroke-linecap:round;"/>
     </g>
     <g id="text_21">
      <!-- 10 -->
      <g style="fill:#262626;" transform="translate(41.47712 526.97859)rotate(-45)scale(0.132 -0.132)">
       <use xlink:href="#DejaVuSans-31"/>
       <use x="63.623047" xlink:href="#DejaVuSans-30"/>
      </g>
     </g>
    </g>
    <g id="ytick_9">
     <g id="line2d_31">
      <path clip-path="url(#pf59854e209)" d="M 64.795534 463.103762 
L 974.663 463.103762 
" style="fill:none;stroke:#cccccc;stroke-linecap:round;"/>
     </g>
     <g id="text_22">
      <!-- 15 -->
      <g style="fill:#262626;" transform="translate(41.47712 477.058302)rotate(-45)scale(0.132 -0.132)">
       <use xlink:href="#DejaVuSans-31"/>
       <use x="63.623047" xlink:href="#DejaVuSans-35"/>
      </g>
     </g>
    </g>
    <g id="ytick_10">
     <g id="line2d_32">
      <path clip-path="url(#pf59854e209)" d="M 64.795534 413.183473 
L 974.663 413.183473 
" style="fill:none;stroke:#cccccc;stroke-linecap:round;"/>
     </g>
     <g id="text_23">
      <!-- 20 -->
      <g style="fill:#262626;" transform="translate(41.47712 427.138014)rotate(-45)scale(0.132 -0.132)">
       <use xlink:href="#DejaVuSans-32"/>
       <use x="63.623047" xlink:href="#DejaVuSans-30"/>
      </g>
     </g>
    </g>
    <g id="text_24">
     <!-- Percentage of male quotes -->
     <g style="fill:#262626;" transform="translate(27.390133 595.749617)rotate(-90)scale(0.144 -0.144)">
      <use xlink:href="#DejaVuSans-50"/>
      <use x="56.677734" xlink:href="#DejaVuSans-65"/>
      <use x="118.201172" xlink:href="#DejaVuSans-72"/>
      <use x="157.064453" xlink:href="#DejaVuSans-63"/>
      <use x="212.044922" xlink:href="#DejaVuSans-65"/>
      <use x="273.568359" xlink:href="#DejaVuSans-6e"/>
      <use x="336.947266" xlink:href="#DejaVuSans-74"/>
      <use x="376.15625" xlink:href="#DejaVuSans-61"/>
      <use x="437.435547" xlink:href="#DejaVuSans-67"/>
      <use x="500.912109" xlink:href="#DejaVuSans-65"/>
      <use x="562.435547" xlink:href="#DejaVuSans-20"/>
      <use x="594.222656" xlink:href="#DejaVuSans-6f"/>
      <use x="655.404297" xlink:href="#DejaVuSans-66"/>
      <use x="690.609375" xlink:href="#DejaVuSans-20"/>
      <use x="722.396484" xlink:href="#DejaVuSans-6d"/>
      <use x="819.808594" xlink:href="#DejaVuSans-61"/>
      <use x="881.087891" xlink:href="#DejaVuSans-6c"/>
      <use x="908.871094" xlink:href="#DejaVuSans-65"/>
      <use x="970.394531" xlink:href="#DejaVuSans-20"/>
      <use x="1002.181641" xlink:href="#DejaVuSans-71"/>
      <use x="1065.658203" xlink:href="#DejaVuSans-75"/>
      <use x="1129.037109" xlink:href="#DejaVuSans-6f"/>
      <use x="1190.21875" xlink:href="#DejaVuSans-74"/>
      <use x="1229.427734" xlink:href="#DejaVuSans-65"/>
      <use x="1290.951172" xlink:href="#DejaVuSans-73"/>
     </g>
    </g>
   </g>
   <g id="PathCollection_3">
    <g clip-path="url(#pf59854e209)">
     <use style="fill:#7d858d;stroke:#7d858d;stroke-width:2.025;" x="110.288907" xlink:href="#m4608e35cf8" y="612.804607"/>
     <use style="fill:#7d858d;stroke:#7d858d;stroke-width:2.025;" x="201.275653" xlink:href="#m4608e35cf8" y="601.246226"/>
     <use style="fill:#7d858d;stroke:#7d858d;stroke-width:2.025;" x="292.2624" xlink:href="#m4608e35cf8" y="522.467102"/>
     <use style="fill:#7d858d;stroke:#7d858d;stroke-width:2.025;" x="383.249147" xlink:href="#m4608e35cf8" y="499.877424"/>
     <use style="fill:#7d858d;stroke:#7d858d;stroke-width:2.025;" x="474.235893" xlink:href="#m4608e35cf8" y="444.083291"/>
     <use style="fill:#7d858d;stroke:#7d858d;stroke-width:2.025;" x="565.22264" xlink:href="#m4608e35cf8" y="385.293627"/>
     <use style="fill:#7d858d;stroke:#7d858d;stroke-width:2.025;" x="656.209387" xlink:href="#m4608e35cf8" y="397.369164"/>
     <use style="fill:#7d858d;stroke:#7d858d;stroke-width:2.025;" x="747.196133" xlink:href="#m4608e35cf8" y="489.517165"/>
     <use style="fill:#7d858d;stroke:#7d858d;stroke-width:2.025;" x="838.18288" xlink:href="#m4608e35cf8" y="575.862734"/>
     <use style="fill:#7d858d;stroke:#7d858d;stroke-width:2.025;" x="929.169627" xlink:href="#m4608e35cf8" y="601.719157"/>
    </g>
   </g>
   <g id="line2d_33">
    <path clip-path="url(#pf59854e209)" d="M 110.288907 612.804607 
L 201.275653 601.246226 
L 292.2624 522.467102 
L 383.249147 499.877424 
L 474.235893 444.083291 
L 565.22264 385.293627 
L 656.209387 397.369164 
L 747.196133 489.517165 
L 838.18288 575.862734 
L 929.169627 601.719157 
" style="fill:none;stroke:#7d858d;stroke-linecap:round;stroke-width:2.7;"/>
   </g>
   <g id="line2d_34">
    <path clip-path="url(#pf59854e209)" style="fill:none;stroke:#7d858d;stroke-linecap:round;stroke-width:2.7;"/>
   </g>
   <g id="line2d_35">
    <path clip-path="url(#pf59854e209)" style="fill:none;stroke:#7d858d;stroke-linecap:round;stroke-width:2.7;"/>
   </g>
   <g id="line2d_36">
    <path clip-path="url(#pf59854e209)" style="fill:none;stroke:#7d858d;stroke-linecap:round;stroke-width:2.7;"/>
   </g>
   <g id="line2d_37">
    <path clip-path="url(#pf59854e209)" style="fill:none;stroke:#7d858d;stroke-linecap:round;stroke-width:2.7;"/>
   </g>
   <g id="line2d_38">
    <path clip-path="url(#pf59854e209)" style="fill:none;stroke:#7d858d;stroke-linecap:round;stroke-width:2.7;"/>
   </g>
   <g id="line2d_39">
    <path clip-path="url(#pf59854e209)" style="fill:none;stroke:#7d858d;stroke-linecap:round;stroke-width:2.7;"/>
   </g>
   <g id="line2d_40">
    <path clip-path="url(#pf59854e209)" style="fill:none;stroke:#7d858d;stroke-linecap:round;stroke-width:2.7;"/>
   </g>
   <g id="line2d_41">
    <path clip-path="url(#pf59854e209)" style="fill:none;stroke:#7d858d;stroke-linecap:round;stroke-width:2.7;"/>
   </g>
   <g id="line2d_42">
    <path clip-path="url(#pf59854e209)" style="fill:none;stroke:#7d858d;stroke-linecap:round;stroke-width:2.7;"/>
   </g>
   <g id="line2d_43">
    <path clip-path="url(#pf59854e209)" style="fill:none;stroke:#7d858d;stroke-linecap:round;stroke-width:2.7;"/>
   </g>
   <g id="PathCollection_4">
    <g clip-path="url(#pf59854e209)">
     <use style="fill:#dc6e57;stroke:#dc6e57;stroke-width:2.025;" x="110.288907" xlink:href="#m2273a9b651" y="612.728253"/>
     <use style="fill:#dc6e57;stroke:#dc6e57;stroke-width:2.025;" x="201.275653" xlink:href="#m2273a9b651" y="599.139235"/>
     <use style="fill:#dc6e57;stroke:#dc6e57;stroke-width:2.025;" x="292.2624" xlink:href="#m2273a9b651" y="492.392204"/>
     <use style="fill:#dc6e57;stroke:#dc6e57;stroke-width:2.025;" x="383.249147" xlink:href="#m2273a9b651" y="477.022469"/>
     <use style="fill:#dc6e57;stroke:#dc6e57;stroke-width:2.025;" x="474.235893" xlink:href="#m2273a9b651" y="432.82302"/>
     <use style="fill:#dc6e57;stroke:#dc6e57;stroke-width:2.025;" x="565.22264" xlink:href="#m2273a9b651" y="395.915819"/>
     <use style="fill:#dc6e57;stroke:#dc6e57;stroke-width:2.025;" x="656.209387" xlink:href="#m2273a9b651" y="429.566287"/>
     <use style="fill:#dc6e57;stroke:#dc6e57;stroke-width:2.025;" x="747.196133" xlink:href="#m2273a9b651" y="505.996937"/>
     <use style="fill:#dc6e57;stroke:#dc6e57;stroke-width:2.025;" x="838.18288" xlink:href="#m2273a9b651" y="581.028926"/>
     <use style="fill:#dc6e57;stroke:#dc6e57;stroke-width:2.025;" x="929.169627" xlink:href="#m2273a9b651" y="603.627349"/>
    </g>
   </g>
   <g id="line2d_44">
    <path clip-path="url(#pf59854e209)" d="M 110.288907 612.728253 
L 201.275653 599.139235 
L 292.2624 492.392204 
L 383.249147 477.022469 
L 474.235893 432.82302 
L 565.22264 395.915819 
L 656.209387 429.566287 
L 747.196133 505.996937 
L 838.18288 581.028926 
L 929.169627 603.627349 
" style="fill:none;stroke:#dc6e57;stroke-linecap:round;stroke-width:2.7;"/>
   </g>
   <g id="line2d_45">
    <path clip-path="url(#pf59854e209)" style="fill:none;stroke:#dc6e57;stroke-linecap:round;stroke-width:2.7;"/>
   </g>
   <g id="line2d_46">
    <path clip-path="url(#pf59854e209)" style="fill:none;stroke:#dc6e57;stroke-linecap:round;stroke-width:2.7;"/>
   </g>
   <g id="line2d_47">
    <path clip-path="url(#pf59854e209)" style="fill:none;stroke:#dc6e57;stroke-linecap:round;stroke-width:2.7;"/>
   </g>
   <g id="line2d_48">
    <path clip-path="url(#pf59854e209)" style="fill:none;stroke:#dc6e57;stroke-linecap:round;stroke-width:2.7;"/>
   </g>
   <g id="line2d_49">
    <path clip-path="url(#pf59854e209)" style="fill:none;stroke:#dc6e57;stroke-linecap:round;stroke-width:2.7;"/>
   </g>
   <g id="line2d_50">
    <path clip-path="url(#pf59854e209)" style="fill:none;stroke:#dc6e57;stroke-linecap:round;stroke-width:2.7;"/>
   </g>
   <g id="line2d_51">
    <path clip-path="url(#pf59854e209)" style="fill:none;stroke:#dc6e57;stroke-linecap:round;stroke-width:2.7;"/>
   </g>
   <g id="line2d_52">
    <path clip-path="url(#pf59854e209)" style="fill:none;stroke:#dc6e57;stroke-linecap:round;stroke-width:2.7;"/>
   </g>
   <g id="line2d_53">
    <path clip-path="url(#pf59854e209)" style="fill:none;stroke:#dc6e57;stroke-linecap:round;stroke-width:2.7;"/>
   </g>
   <g id="line2d_54">
    <path clip-path="url(#pf59854e209)" style="fill:none;stroke:#dc6e57;stroke-linecap:round;stroke-width:2.7;"/>
   </g>
   <g id="patch_8">
    <path d="M 64.795534 624.180156 
L 64.795534 373.918078 
" style="fill:none;stroke:#cccccc;stroke-linecap:square;stroke-linejoin:miter;stroke-width:1.25;"/>
   </g>
   <g id="patch_9">
    <path d="M 974.663 624.180156 
L 974.663 373.918078 
" style="fill:none;stroke:#cccccc;stroke-linecap:square;stroke-linejoin:miter;stroke-width:1.25;"/>
   </g>
   <g id="patch_10">
    <path d="M 64.795534 624.180156 
L 974.663 624.180156 
" style="fill:none;stroke:#cccccc;stroke-linecap:square;stroke-linejoin:miter;stroke-width:1.25;"/>
   </g>
   <g id="patch_11">
    <path d="M 64.795534 373.918078 
L 974.663 373.918078 
" style="fill:none;stroke:#cccccc;stroke-linecap:square;stroke-linejoin:miter;stroke-width:1.25;"/>
   </g>
   <g id="text_25">
    <!-- Males -->
    <g style="fill:#262626;" transform="translate(498.923517 353.918078)scale(0.144 -0.144)">
     <defs>
      <path d="M 628 4666 
L 1569 4666 
L 2759 1491 
L 3956 4666 
L 4897 4666 
L 4897 0 
L 4281 0 
L 4281 4097 
L 3078 897 
L 2444 897 
L 1241 4097 
L 1241 0 
L 628 0 
L 628 4666 
z
" id="DejaVuSans-4d" transform="scale(0.015625)"/>
     </defs>
     <use xlink:href="#DejaVuSans-4d"/>
     <use x="86.279297" xlink:href="#DejaVuSans-61"/>
     <use x="147.558594" xlink:href="#DejaVuSans-6c"/>
     <use x="175.341797" xlink:href="#DejaVuSans-65"/>
     <use x="236.865234" xlink:href="#DejaVuSans-73"/>
    </g>
   </g>
   <g id="legend_1">
    <g id="patch_12">
     <path d="M 1022.796373 416.628328 
L 1134.049686 416.628328 
Q 1136.689686 416.628328 1136.689686 413.988328 
L 1136.689686 376.558078 
Q 1136.689686 373.918078 1134.049686 373.918078 
L 1022.796373 373.918078 
Q 1020.156373 373.918078 1020.156373 376.558078 
L 1020.156373 413.988328 
Q 1020.156373 416.628328 1022.796373 416.628328 
z
" style="fill:#ffffff;opacity:0.8;stroke:#cccccc;stroke-linejoin:miter;"/>
    </g>
    <g id="PathCollection_5">
     <g>
      <use style="fill:#7d858d;stroke:#7d858d;stroke-width:2.025;" x="1038.636373" xlink:href="#m4608e35cf8" y="385.763016"/>
     </g>
    </g>
    <g id="text_26">
     <!-- Respected -->
     <g style="fill:#262626;" transform="translate(1062.396373 389.228016)scale(0.132 -0.132)">
      <defs>
       <path d="M 2841 2188 
Q 3044 2119 3236 1894 
Q 3428 1669 3622 1275 
L 4263 0 
L 3584 0 
L 2988 1197 
Q 2756 1666 2539 1819 
Q 2322 1972 1947 1972 
L 1259 1972 
L 1259 0 
L 628 0 
L 628 4666 
L 2053 4666 
Q 2853 4666 3247 4331 
Q 3641 3997 3641 3322 
Q 3641 2881 3436 2590 
Q 3231 2300 2841 2188 
z
M 1259 4147 
L 1259 2491 
L 2053 2491 
Q 2509 2491 2742 2702 
Q 2975 2913 2975 3322 
Q 2975 3731 2742 3939 
Q 2509 4147 2053 4147 
L 1259 4147 
z
" id="DejaVuSans-52" transform="scale(0.015625)"/>
       <path d="M 1159 525 
L 1159 -1331 
L 581 -1331 
L 581 3500 
L 1159 3500 
L 1159 2969 
Q 1341 3281 1617 3432 
Q 1894 3584 2278 3584 
Q 2916 3584 3314 3078 
Q 3713 2572 3713 1747 
Q 3713 922 3314 415 
Q 2916 -91 2278 -91 
Q 1894 -91 1617 61 
Q 1341 213 1159 525 
z
M 3116 1747 
Q 3116 2381 2855 2742 
Q 2594 3103 2138 3103 
Q 1681 3103 1420 2742 
Q 1159 2381 1159 1747 
Q 1159 1113 1420 752 
Q 1681 391 2138 391 
Q 2594 391 2855 752 
Q 3116 1113 3116 1747 
z
" id="DejaVuSans-70" transform="scale(0.015625)"/>
       <path d="M 2906 2969 
L 2906 4863 
L 3481 4863 
L 3481 0 
L 2906 0 
L 2906 525 
Q 2725 213 2448 61 
Q 2172 -91 1784 -91 
Q 1150 -91 751 415 
Q 353 922 353 1747 
Q 353 2572 751 3078 
Q 1150 3584 1784 3584 
Q 2172 3584 2448 3432 
Q 2725 3281 2906 2969 
z
M 947 1747 
Q 947 1113 1208 752 
Q 1469 391 1925 391 
Q 2381 391 2643 752 
Q 2906 1113 2906 1747 
Q 2906 2381 2643 2742 
Q 2381 3103 1925 3103 
Q 1469 3103 1208 2742 
Q 947 2381 947 1747 
z
" id="DejaVuSans-64" transform="scale(0.015625)"/>
      </defs>
      <use xlink:href="#DejaVuSans-52"/>
      <use x="64.982422" xlink:href="#DejaVuSans-65"/>
      <use x="126.505859" xlink:href="#DejaVuSans-73"/>
      <use x="178.605469" xlink:href="#DejaVuSans-70"/>
      <use x="242.082031" xlink:href="#DejaVuSans-65"/>
      <use x="303.605469" xlink:href="#DejaVuSans-63"/>
      <use x="358.585938" xlink:href="#DejaVuSans-74"/>
      <use x="397.794922" xlink:href="#DejaVuSans-65"/>
      <use x="459.318359" xlink:href="#DejaVuSans-64"/>
     </g>
    </g>
    <g id="PathCollection_6">
     <g>
      <use style="fill:#dc6e57;stroke:#dc6e57;stroke-width:2.025;" x="1038.636373" xlink:href="#m2273a9b651" y="405.138141"/>
     </g>
    </g>
    <g id="text_27">
     <!-- Popular -->
     <g style="fill:#262626;" transform="translate(1062.396373 408.603141)scale(0.132 -0.132)">
      <use xlink:href="#DejaVuSans-50"/>
      <use x="56.677734" xlink:href="#DejaVuSans-6f"/>
      <use x="117.859375" xlink:href="#DejaVuSans-70"/>
      <use x="181.335938" xlink:href="#DejaVuSans-75"/>
      <use x="244.714844" xlink:href="#DejaVuSans-6c"/>
      <use x="272.498047" xlink:href="#DejaVuSans-61"/>
      <use x="333.777344" xlink:href="#DejaVuSans-72"/>
     </g>
    </g>
   </g>
  </g>
  <g id="text_28">
   <!-- Age distribution depending on type of media and gender -->
   <g style="fill:#262626;" transform="translate(362.432813 25.797656)scale(0.15 -0.15)">
    <defs>
     <path d="M 603 3500 
L 1178 3500 
L 1178 0 
L 603 0 
L 603 3500 
z
M 603 4863 
L 1178 4863 
L 1178 4134 
L 603 4134 
L 603 4863 
z
" id="DejaVuSans-69" transform="scale(0.015625)"/>
     <path d="M 3116 1747 
Q 3116 2381 2855 2742 
Q 2594 3103 2138 3103 
Q 1681 3103 1420 2742 
Q 1159 2381 1159 1747 
Q 1159 1113 1420 752 
Q 1681 391 2138 391 
Q 2594 391 2855 752 
Q 3116 1113 3116 1747 
z
M 1159 2969 
Q 1341 3281 1617 3432 
Q 1894 3584 2278 3584 
Q 2916 3584 3314 3078 
Q 3713 2572 3713 1747 
Q 3713 922 3314 415 
Q 2916 -91 2278 -91 
Q 1894 -91 1617 61 
Q 1341 213 1159 525 
L 1159 0 
L 581 0 
L 581 4863 
L 1159 4863 
L 1159 2969 
z
" id="DejaVuSans-62" transform="scale(0.015625)"/>
     <path d="M 2059 -325 
Q 1816 -950 1584 -1140 
Q 1353 -1331 966 -1331 
L 506 -1331 
L 506 -850 
L 844 -850 
Q 1081 -850 1212 -737 
Q 1344 -625 1503 -206 
L 1606 56 
L 191 3500 
L 800 3500 
L 1894 763 
L 2988 3500 
L 3597 3500 
L 2059 -325 
z
" id="DejaVuSans-79" transform="scale(0.015625)"/>
    </defs>
    <use xlink:href="#DejaVuSans-41"/>
    <use x="68.408203" xlink:href="#DejaVuSans-67"/>
    <use x="131.884766" xlink:href="#DejaVuSans-65"/>
    <use x="193.408203" xlink:href="#DejaVuSans-20"/>
    <use x="225.195312" xlink:href="#DejaVuSans-64"/>
    <use x="288.671875" xlink:href="#DejaVuSans-69"/>
    <use x="316.455078" xlink:href="#DejaVuSans-73"/>
    <use x="368.554688" xlink:href="#DejaVuSans-74"/>
    <use x="407.763672" xlink:href="#DejaVuSans-72"/>
    <use x="448.876953" xlink:href="#DejaVuSans-69"/>
    <use x="476.660156" xlink:href="#DejaVuSans-62"/>
    <use x="540.136719" xlink:href="#DejaVuSans-75"/>
    <use x="603.515625" xlink:href="#DejaVuSans-74"/>
    <use x="642.724609" xlink:href="#DejaVuSans-69"/>
    <use x="670.507812" xlink:href="#DejaVuSans-6f"/>
    <use x="731.689453" xlink:href="#DejaVuSans-6e"/>
    <use x="795.068359" xlink:href="#DejaVuSans-20"/>
    <use x="826.855469" xlink:href="#DejaVuSans-64"/>
    <use x="890.332031" xlink:href="#DejaVuSans-65"/>
    <use x="951.855469" xlink:href="#DejaVuSans-70"/>
    <use x="1015.332031" xlink:href="#DejaVuSans-65"/>
    <use x="1076.855469" xlink:href="#DejaVuSans-6e"/>
    <use x="1140.234375" xlink:href="#DejaVuSans-64"/>
    <use x="1203.710938" xlink:href="#DejaVuSans-69"/>
    <use x="1231.494141" xlink:href="#DejaVuSans-6e"/>
    <use x="1294.873047" xlink:href="#DejaVuSans-67"/>
    <use x="1358.349609" xlink:href="#DejaVuSans-20"/>
    <use x="1390.136719" xlink:href="#DejaVuSans-6f"/>
    <use x="1451.318359" xlink:href="#DejaVuSans-6e"/>
    <use x="1514.697266" xlink:href="#DejaVuSans-20"/>
    <use x="1546.484375" xlink:href="#DejaVuSans-74"/>
    <use x="1585.693359" xlink:href="#DejaVuSans-79"/>
    <use x="1644.873047" xlink:href="#DejaVuSans-70"/>
    <use x="1708.349609" xlink:href="#DejaVuSans-65"/>
    <use x="1769.873047" xlink:href="#DejaVuSans-20"/>
    <use x="1801.660156" xlink:href="#DejaVuSans-6f"/>
    <use x="1862.841797" xlink:href="#DejaVuSans-66"/>
    <use x="1898.046875" xlink:href="#DejaVuSans-20"/>
    <use x="1929.833984" xlink:href="#DejaVuSans-6d"/>
    <use x="2027.246094" xlink:href="#DejaVuSans-65"/>
    <use x="2088.769531" xlink:href="#DejaVuSans-64"/>
    <use x="2152.246094" xlink:href="#DejaVuSans-69"/>
    <use x="2180.029297" xlink:href="#DejaVuSans-61"/>
    <use x="2241.308594" xlink:href="#DejaVuSans-20"/>
    <use x="2273.095703" xlink:href="#DejaVuSans-61"/>
    <use x="2334.375" xlink:href="#DejaVuSans-6e"/>
    <use x="2397.753906" xlink:href="#DejaVuSans-64"/>
    <use x="2461.230469" xlink:href="#DejaVuSans-20"/>
    <use x="2493.017578" xlink:href="#DejaVuSans-67"/>
    <use x="2556.494141" xlink:href="#DejaVuSans-65"/>
    <use x="2618.017578" xlink:href="#DejaVuSans-6e"/>
    <use x="2681.396484" xlink:href="#DejaVuSans-64"/>
    <use x="2744.873047" xlink:href="#DejaVuSans-65"/>
    <use x="2806.396484" xlink:href="#DejaVuSans-72"/>
   </g>
  </g>
 </g>
 <defs>
  <clipPath id="p70e6c5ac55">
   <rect height="250.262078" width="909.867466" x="64.795534" y="77.104"/>
  </clipPath>
  <clipPath id="pf59854e209">
   <rect height="250.262078" width="909.867466" x="64.795534" y="373.918078"/>
  </clipPath>
 </defs>
</svg>
